Patient4_TMGait_0pt6_01_left_17_GRF.mot
version=1
nRows=52
nColumns=19
inDegrees=no
endheader
time	F1x	F1y	F1z	M1x	M1y	M1z	F2x	F2y	F2z	M2x	M2y	M2z	EC1x	EC1y	EC1z	EC2x	EC2y	EC2z
20.69	9.8147	4.1588	-1.252	-2.047	7.0198	2.3928	-36.3124	716.8393	-30.2547	285.0064	40.6521	645.5665	-0.0592	0.0182	-0.0073	-0.0462	0.0165	0.9585
20.7019	6.6767	3.5601	-0.84295	-1.6477	4.7601	2.2524	-32.9436	717.8624	-36.0509	286.1611	44.5521	644.3998	-0.0592	0.0182	-0.0073	-0.0462	0.0165	0.9585
20.7139	3.9545	3.0917	-0.48888	-1.339	2.806	2.1715	-29.5364	720.2901	-40.7815	287.7873	47.4037	643.6352	-0.0592	0.0182	-0.0073	-0.0462	0.0165	0.9585
20.7258	1.8162	2.7795	-0.20821	-1.1326	1.285	2.1514	-26.268	724.5416	-44.2109	290.0082	49.0645	643.6922	-0.0592	0.0182	-0.0073	-0.0462	0.0165	0.9585
20.7377	0.30981	2.5976	-0.011338	-1.0168	0.22191	2.1486	-23.2433	730.7647	-46.4028	292.8781	49.6423	644.8162	-0.0592	0.0182	-0.0073	-0.0462	0.0165	0.9585
20.7496	-0.66707	2.523	0.11724	-0.96971	-0.45666	2.1878	-20.5254	738.7591	-47.6184	296.3319	49.4114	646.9933	-0.0592	0.0182	-0.0073	-0.0462	0.0165	0.9585
20.7616	-1.2229	2.4867	0.18945	-0.9566	-0.83495	2.2022	-18.1346	748.0133	-48.1432	300.1861	48.6476	649.9338	-0.0592	0.0182	-0.0073	-0.0462	0.0165	0.9585
20.7735	-1.5176	2.4487	0.22208	-0.94871	-1.0162	2.1984	-16.0682	757.7229	-48.2689	304.1393	47.6194	653.0932	-0.0592	0.0182	-0.0073	-0.0462	0.0165	0.9585
20.7854	-1.6335	2.307	0.22677	-0.90377	-1.0715	2.0751	-14.3123	766.8815	-48.2072	307.8098	46.5146	655.7484	-0.0592	0.0182	-0.0073	-0.0462	0.0165	0.9585
20.7974	-1.6994	1.9766	0.21079	-0.78149	-1.064	1.7788	-12.826	774.4537	-48.1044	310.7955	45.4563	657.1404	-0.0592	0.0182	-0.0073	-0.0462	0.0165	0.9585
20.8093	-1.7436	1.3365	0.18785	-0.53534	-1.0292	1.1795	-11.5448	779.4802	-48.0101	312.727	44.4757	656.5347	-0.0592	0.0182	-0.0073	-0.0462	0.0165	0.9585
20.8212	-1.8123	0.2974	0.15487	-0.12798	-0.98965	0.20501	-10.3631	781.2662	-47.9176	313.3354	43.5362	653.4008	-0.0592	0.0182	-0.0073	-0.0462	0.0165	0.9585
20.8331	-1.881	-1.2172	0.13017	0.46918	-0.96196	-1.25	-9.1223	779.3962	-47.795	312.4627	42.5602	647.4058	-0.0592	0.0182	-0.0073	-0.0462	0.0165	0.9585
20.8451	-1.9232	-3.1955	0.11297	1.2505	-0.93537	-3.1528	-7.6911	773.7644	-47.6343	310.0703	41.488	638.4666	-0.0592	0.0182	-0.0073	-0.0462	0.0165	0.9585
20.857	-1.8333	-5.5074	0.12225	2.1626	-0.89047	-5.3951	-5.9155	764.6206	-47.4522	306.2537	40.2778	626.7746	-0.0592	0.0182	-0.0073	-0.0462	0.0165	0.9585
20.8689	-1.5161	-7.8083	0.14741	3.0717	-0.77692	-7.6419	-3.7108	752.5783	-47.2869	301.2502	38.9232	612.8214	-0.0592	0.0182	-0.0073	-0.0462	0.0165	0.9585
20.8809	-0.79031	-9.4872	0.19943	3.738	-0.53777	-9.3141	-1.002	738.5636	-47.1773	295.4247	37.4258	597.3299	-0.0592	0.0182	-0.0073	-0.0462	0.0165	0.9585
20.8928	0.50835	-9.5398	0.26863	3.7699	-0.097916	-9.4321	2.2397	723.7774	-47.1453	289.2475	35.7868	581.2583	-0.0592	0.0182	-0.0073	-0.0462	0.0165	0.9585
20.9047	2.5626	-6.5598	0.35885	2.614	0.60766	-6.6392	6.0102	709.4833	-47.1807	283.2231	33.9941	565.5956	-0.0592	0.0182	-0.0073	-0.0462	0.0165	0.9585
20.9166	5.4937	1.3106	0.45582	-0.45296	1.6368	0.88352	10.2264	696.8711	-47.2333	277.8231	32.0338	551.3161	-0.0592	0.0182	-0.0073	-0.0462	0.0165	0.9585
20.9286	9.3058	16.2067	0.53966	-6.2671	3.003	15.2272	14.7716	686.7555	-47.227	273.3728	29.8908	539.1032	-0.0592	0.0182	-0.0073	-0.0462	0.0165	0.9585
20.9405	13.7441	40.2796	0.58051	-15.6684	4.6285	38.52	19.4624	679.3991	-47.0438	269.9719	27.5382	529.2473	-0.0592	0.0182	-0.0073	-0.0462	0.0165	0.9585
20.9524	18.2056	75.1193	0.51952	-29.2779	6.3205	72.3562	24.1243	674.3377	-46.5823	267.4322	24.9736	521.4552	-0.0592	0.0182	-0.0073	-0.0462	0.0165	0.9585
20.9644	21.53	120.8552	0.28558	-47.1448	7.6897	116.9303	28.5456	670.4285	-45.7167	265.2962	22.1909	514.9366	-0.0592	0.0182	-0.0073	-0.0462	0.0165	0.9585
20.9763	21.9787	174.9811	-0.19326	-68.2901	8.131	169.8773	32.5634	665.9478	-44.3426	262.8898	19.1983	508.4173	-0.0592	0.0182	-0.0073	-0.0462	0.0165	0.9585
20.9882	17.9618	231.5594	-0.82548	-90.3934	6.9569	225.5199	35.9869	658.963	-42.3606	259.4671	16.014	500.4642	-0.0592	0.0182	-0.0073	-0.0462	0.0165	0.9585
21.0001	10.1292	282.6293	-0.82557	-110.3135	3.6558	276.1366	38.7217	647.7626	-39.7478	254.384	12.6881	489.7567	-0.0592	0.0182	-0.0073	-0.0462	0.0165	0.9585
21.0121	0.56272	322.8118	0.87235	-125.8962	-1.98	316.3435	40.7388	631.2739	-36.5951	247.2441	9.3194	475.4334	-0.0592	0.0182	-0.0073	-0.0462	0.0165	0.9585
21.024	-9.1754	352.0182	3.4003	-137.0977	-8.4683	345.8898	42.1179	609.105	-33.1126	237.9027	6.0413	457.1348	-0.0592	0.0182	-0.0073	-0.0462	0.0165	0.9585
21.0359	-17.9289	372.6852	6.4575	-144.8843	-15.0406	367.0575	42.9657	581.241	-29.5778	226.3662	3.0107	434.8051	-0.0592	0.0182	-0.0073	-0.0462	0.0165	0.9585
21.0479	-25.1823	388.0426	9.4516	-150.5438	-20.8978	383.029	43.3683	547.9257	-26.1479	212.7494	0.29918	408.597	-0.0592	0.0182	-0.0073	-0.0462	0.0165	0.9585
21.0598	-30.8808	400.8068	12.1287	-155.1536	-25.7645	396.4453	43.2804	509.628	-22.8315	197.2627	-2.0823	378.8639	-0.0592	0.0182	-0.0073	-0.0462	0.0165	0.9585
21.0717	-35.2454	412.9359	14.3912	-159.4835	-29.6175	409.17	42.5938	467.05	-19.6028	180.2055	-4.1221	346.1593	-0.0592	0.0182	-0.0073	-0.0462	0.0165	0.9585
21.0836	-38.3697	426.0137	16.1436	-164.1488	-32.4163	422.6205	41.17	421.1728	-16.4208	161.9801	-5.8124	311.2594	-0.0592	0.0182	-0.0073	-0.0462	0.0165	0.9585
21.0956	-40.3447	441.5041	17.7307	-169.6907	-34.5351	438.1534	38.8948	373.2268	-13.3348	143.0725	-7.0819	275.1138	-0.0592	0.0182	-0.0073	-0.0462	0.0165	0.9585
21.1075	-41.2966	460.4516	19.2804	-176.498	-36.1537	456.615	35.7627	324.6696	-10.4276	124.046	-7.8724	238.802	-0.0592	0.0182	-0.0073	-0.0462	0.0165	0.9585
21.1194	-41.596	483.183	21.4212	-184.6701	-38.0134	478.3041	31.8685	277.0589	-7.8244	105.4937	-8.13	203.4626	-0.0592	0.0182	-0.0073	-0.0462	0.0165	0.9585
21.1314	-41.5855	509.5479	24.2551	-194.1536	-40.3482	502.9732	27.4339	231.889	-5.5933	87.9817	-7.8878	170.1336	-0.0592	0.0182	-0.0073	-0.0462	0.0165	0.9585
21.1433	-41.5798	539.2799	28.0121	-204.8547	-43.5061	530.3209	22.7013	190.3776	-3.7778	71.965	-7.2043	139.6497	-0.0592	0.0182	-0.0073	-0.0462	0.0165	0.9585
21.1552	-41.6509	572.0008	32.3322	-216.6735	-47.1881	559.8658	17.9574	153.3171	-2.3538	57.7371	-6.2113	112.5096	-0.0592	0.0182	-0.0073	-0.0462	0.0165	0.9585
21.1671	-41.7338	607.0994	37.0938	-229.4106	-51.2705	590.9579	13.3909	121.0827	-1.3075	45.4238	-5.006	88.9516	-0.0592	0.0182	-0.0073	-0.0462	0.0165	0.9585
21.1791	-41.6909	643.5461	41.8572	-242.7228	-55.285	622.5311	9.1909	93.6219	-0.6069	34.9915	-3.6985	68.8864	-0.0592	0.0182	-0.0073	-0.0462	0.0165	0.9585
21.191	-41.3428	679.9807	46.494	-256.106	-59.0509	653.3107	5.4588	70.6229	-0.22615	26.301	-2.3612	52.0958	-0.0592	0.0182	-0.0073	-0.0462	0.0165	0.9585
21.2029	-40.5978	714.8264	50.8011	-268.9651	-62.3347	681.8492	2.3135	51.6157	-0.095577	19.1594	-1.0968	38.2115	-0.0592	0.0182	-0.0073	-0.0462	0.0165	0.9585
21.2149	-39.3954	746.5591	54.7251	-280.7053	-65.0675	706.8144	-0.16846	36.1675	-0.11283	13.3832	-0.018031	26.946	-0.0592	0.0182	-0.0073	-0.0462	0.0165	0.9585
21.2268	-37.7428	773.9079	58.2397	-290.8182	-67.2252	727.2036	-1.8379	23.8816	-0.18303	8.8121	0.75574	17.9876	-0.0592	0.0182	-0.0073	-0.0462	0.0165	0.9585
21.2387	-35.694	795.907	61.2464	-298.9139	-68.7406	742.3031	-2.6594	14.4942	-0.22916	5.3357	1.1536	11.1607	-0.0592	0.0182	-0.0073	-0.0462	0.0165	0.9585
21.2506	-33.3778	811.9603	63.7815	-304.7386	-69.6914	751.7888	-2.7251	7.7852	-0.24756	2.8638	1.2266	6.2696	-0.0592	0.0182	-0.0073	-0.0462	0.0165	0.9585
21.2626	-30.875	821.7842	65.732	-308.1694	-70.0047	755.5857	-2.4062	3.4737	-0.2262	1.2815	1.102	3.1312	-0.0592	0.0182	-0.0073	-0.0462	0.0165	0.9585
21.2745	-28.3302	825.4076	67.2084	-309.2025	-69.8381	753.9092	-1.8945	1.0385	-0.2074	0.39453	0.90312	1.3433	-0.0592	0.0182	-0.0073	-0.0462	0.0165	0.9585
21.2864	-25.8311	823.1812	68.1456	-307.9782	-69.1734	747.1681	-1.3767	-0.014526	-0.17239	0.012949	0.68214	0.58537	-0.0592	0.0182	-0.0073	-0.0462	0.0165	0.9585
21.2984	-23.4519	815.7339	68.7098	-304.7435	-68.2049	736.0138	-0.90363	-0.18745	-0.14998	-0.04541	0.49334	0.46316	-0.0592	0.0182	-0.0073	-0.0462	0.0165	0.9585
